<svg width="148" height="129" viewBox="0 0 148 129" fill="none" xmlns="http://www.w3.org/2000/svg">
<path d="M21.2369 43C21.2369 37.852 21.2438 34.2777 21.6576 31.5838C22.0544 28.9997 22.778 27.5822 23.9803 26.5297C25.2306 25.4352 26.9924 24.7439 30.1145 24.3765C33.2782 24.0041 37.4458 24 43.2966 24H104.696C110.547 24 114.714 24.0041 117.878 24.3765C121 24.7439 122.762 25.4352 124.012 26.5297C125.215 27.5822 125.938 28.9997 126.335 31.5838C126.749 34.2777 126.756 37.852 126.756 43V88.875H21.2369V43Z" stroke="#2F637A" stroke-width="5"/>
<path d="M22.8302 88.875C19.5117 88.875 16.2369 91.2965 16.2369 94.9583C16.2369 100.599 21.3443 104.625 26.9235 104.625H121.069C126.648 104.625 131.756 100.599 131.756 94.9583C131.756 91.2965 128.481 88.875 125.162 88.875H22.8302Z" stroke="#2F637A" stroke-width="5"/>
</svg>
