<svg width="104" height="90" viewBox="0 0 104 90" fill="none" xmlns="http://www.w3.org/2000/svg">
<path d="M54.2013 9.72986L52.6586 11.6971L54.2012 9.72986C52.9446 8.74441 51.216 8.7444 49.9593 9.72986C47.8209 11.4068 40.3256 17.4841 33.3416 25.6026C26.4584 33.6039 19.5946 44.127 19.5946 54.6429C19.5946 69.8193 34.6758 81.25 52.0803 81.25C69.4847 81.25 84.5659 69.8193 84.5659 54.6429C84.5659 44.127 77.7021 33.6039 70.819 25.6026C63.835 17.4841 56.3397 11.4068 54.2013 9.72986Z" stroke="#2F637A" stroke-width="5"/>
<path d="M52.0802 67.5C49.8301 67.5 47.6019 67.112 45.5231 66.3582C43.4442 65.6044 41.5553 64.4995 39.9642 63.1066C38.3731 61.7137 37.111 60.0601 36.2499 58.2403C35.3888 56.4204 34.9456 54.4698 34.9456 52.5" stroke="#2F637A" stroke-width="5" stroke-linecap="round"/>
</svg>
