<svg width="135" height="117" viewBox="0 0 135 117" fill="none" xmlns="http://www.w3.org/2000/svg">
<path fill-rule="evenodd" clip-rule="evenodd" d="M67.8678 102.705C95.5477 102.705 117.987 83.0614 117.987 58.8299C117.987 34.5984 95.5477 14.9549 67.8678 14.9549C40.1879 14.9549 17.7489 34.5984 17.7489 58.8299C17.7489 83.0614 40.1879 102.705 67.8678 102.705ZM67.942 24.7771C67.8678 24.8505 67.8678 24.9687 67.8678 25.2049V58.5224C67.8678 58.672 67.8678 58.7469 67.8308 58.8071C67.7937 58.8674 67.7269 58.9011 67.5934 58.9686L34.6097 75.6393C34.3754 75.7577 34.2582 75.817 34.23 75.9267C34.2018 76.0365 34.2751 76.1437 34.4218 76.3582C37.8273 81.3381 42.6295 85.478 48.3771 88.383C54.303 91.3781 61.0252 92.9549 67.8678 92.9549C74.7105 92.9549 81.4326 91.3781 87.3585 88.383C93.2844 85.3879 98.2054 81.0801 101.627 75.8924C105.048 70.7047 106.849 64.8201 106.849 58.8299C106.849 52.8397 105.048 46.9551 101.627 41.7674C98.2054 36.5797 93.2844 32.2719 87.3585 29.2768C81.577 26.3547 75.0377 24.7826 68.3679 24.7077C68.1335 24.7051 68.0163 24.7038 67.942 24.7771Z" fill="#2F637A"/>
</svg>
